HIERARCHY
ROOT Hips
{
	OFFSET 0.00000 0.00000 0.00000
	CHANNELS 6 Xposition Yposition Zposition Zrotation Yrotation Xrotation 
	JOINT LHipJoint
	{
		OFFSET 0 0 0
		CHANNELS 3 Zrotation Yrotation Xrotation
		JOINT LeftUpLeg
		{
			OFFSET 1.62964 -1.40469 0.78906
			CHANNELS 3 Zrotation Yrotation Xrotation
			JOINT LeftLeg
			{
				OFFSET 2.29640 -6.30932 0.00000
				CHANNELS 3 Zrotation Yrotation Xrotation
				JOINT LeftFoot
				{
					OFFSET 2.29451 -6.30412 0.00000
					CHANNELS 3 Zrotation Yrotation Xrotation
					JOINT LeftToeBase
					{
						OFFSET 0.03611 -0.09921 1.56387
						CHANNELS 3 Zrotation Yrotation Xrotation
						End Site
						{
							OFFSET 0.00000 -0.00000 0.80291
						}
					}
				}
			}
		}
	}
	JOINT RHipJoint
	{
		OFFSET 0 0 0
		CHANNELS 3 Zrotation Yrotation Xrotation
		JOINT RightUpLeg
		{
			OFFSET -1.73712 -1.40469 0.78906
			CHANNELS 3 Zrotation Yrotation Xrotation
			JOINT RightLeg
			{
				OFFSET -2.28137 -6.26801 0.00000
				CHANNELS 3 Zrotation Yrotation Xrotation
				JOINT RightFoot
				{
					OFFSET -2.28681 -6.28298 0.00000
					CHANNELS 3 Zrotation Yrotation Xrotation
					JOINT RightToeBase
					{
						OFFSET -0.15927 -0.43759 1.61103
						CHANNELS 3 Zrotation Yrotation Xrotation
						End Site
						{
							OFFSET -0.00000 -0.00000 0.84630
						}
					}
				}
			}
		}
	}
	JOINT LowerBack
	{
		OFFSET 0 0 0
		CHANNELS 3 Zrotation Yrotation Xrotation
		JOINT Spine
		{
			OFFSET -0.04227 2.04338 -0.00225
			CHANNELS 3 Zrotation Yrotation Xrotation
			JOINT Spine1
			{
				OFFSET -0.02148 2.04482 -0.04273
				CHANNELS 3 Zrotation Yrotation Xrotation
				JOINT Neck
				{
					OFFSET 0 0 0
					CHANNELS 3 Zrotation Yrotation Xrotation
					JOINT Neck1
					{
						OFFSET 0.09180 1.44629 0.19359
						CHANNELS 3 Zrotation Yrotation Xrotation
						JOINT Head
						{
							OFFSET 0.00887 1.40645 0.14750
							CHANNELS 3 Zrotation Yrotation Xrotation
							End Site
							{
								OFFSET -0.00669 1.50671 0.03707
							}
						}
					}
				}
				JOINT LeftShoulder
				{
					OFFSET 0 0 0
					CHANNELS 3 Zrotation Yrotation Xrotation
					JOINT LeftArm
					{
						OFFSET 2.17674 1.86763 -0.06520
						CHANNELS 3 Zrotation Yrotation Xrotation
						JOINT LeftForeArm
						{
							OFFSET 4.65776 -0.00000 0.00000
							CHANNELS 3 Zrotation Yrotation Xrotation
							JOINT LeftHand
							{
								OFFSET 3.55539 -0.00000 0.00000
								CHANNELS 3 Zrotation Yrotation Xrotation
								JOINT LeftFingerBase
								{
									OFFSET 0 0 0
									CHANNELS 3 Zrotation Yrotation Xrotation
									JOINT LeftHandIndex1
									{
										OFFSET 0.70726 -0.00000 0.00000
										CHANNELS 3 Zrotation Yrotation Xrotation
										End Site
										{
											OFFSET 0.57022 -0.00000 0.00000
										}
									}
								}
								JOINT LThumb
								{
									OFFSET 0 0 0
									CHANNELS 3 Zrotation Yrotation Xrotation
									End Site
									{
										OFFSET 0.57892 -0.00000 0.57892
									}
								}
							}
						}
					}
				}
				JOINT RightShoulder
				{
					OFFSET 0 0 0
					CHANNELS 3 Zrotation Yrotation Xrotation
					JOINT RightArm
					{
						OFFSET -2.80694 1.55459 -0.32496
						CHANNELS 3 Zrotation Yrotation Xrotation
						JOINT RightForeArm
						{
							OFFSET -4.71925 -0.00000 -0.00000
							CHANNELS 3 Zrotation Yrotation Xrotation
							JOINT RightHand
							{
								OFFSET -3.56990 -0.00000 0.00000
								CHANNELS 3 Zrotation Yrotation Xrotation
								JOINT RightFingerBase
								{
									OFFSET 0 0 0
									CHANNELS 3 Zrotation Yrotation Xrotation
									JOINT RightHandIndex1
									{
										OFFSET -0.50776 -0.00000 0.00000
										CHANNELS 3 Zrotation Yrotation Xrotation
										End Site
										{
											OFFSET -0.40937 -0.00000 0.00000
										}
									}
								}
								JOINT RThumb
								{
									OFFSET 0 0 0
									CHANNELS 3 Zrotation Yrotation Xrotation
									End Site
									{
										OFFSET -0.41562 -0.00000 0.41562
									}
								}
							}
						}
					}
				}
			}
		}
	}
}
MOTION
Frames: 10
Frame Time: .0083333
10.0201 16.4321 3.8422 176.7010 0.3969 -161.0100 0.0000 0.0000 0.0000 -5.8412 -22.0430 -78.5025 17.7323 19.8763 83.3565 1.0339 1.1267 -19.6507 2.4328 -9.7147 -28.0578 0.0000 0.0000 0.0000 19.7093 13.4173 -17.5389 -0.3635 -3.8732 10.7201 -0.9980 -2.7795 -20.0665 -3.7764 11.8567 -35.2269 -6.1478 -0.7755 -18.7038 -0.3260 0.4710 3.5928 3.2741 -0.3118 14.6542 -1.7265 -0.8889 -3.7598 3.2059 -3.2679 21.1913 1.0228 -2.0114 7.1638 -0.0000 0.0000 0.0000 -84.9004 2.9145 19.9764 15.1689 -24.3809 -3.2954 -0.0000 -0.0000 6.5496 21.3508 -10.0396 -3.8984 -7.1250 0.0000 -0.0000 -4.0163 19.2314 2.4753 -0.0000 0.0000 0.0000 88.5153 2.0598 14.3866 -23.9181 35.0775 -7.6594 0.0000 -0.0000 -3.1865 -12.8403 -53.2771 10.3536 7.1250 -0.0000 -0.0000 67.5457 -76.1301 -53.8093
10.0234 16.4325 3.7853 176.7410 0.4626 -160.9680 0.0000 0.0000 0.0000 -5.4713 -21.9852 -78.8660 17.1996 19.8109 81.7875 1.0265 0.6574 -19.3969 1.9173 -8.6916 -24.8352 0.0000 0.0000 0.0000 19.8075 13.3431 -17.4666 -0.3728 -3.9215 10.8559 -1.0276 -2.6500 -20.2763 -3.8805 11.9997 -35.7310 -6.1207 -0.6566 -18.6118 -0.3904 0.6211 3.5236 3.2303 -0.2313 14.5003 -1.7446 -0.9653 -3.6918 3.2755 -3.4336 21.3792 1.0350 -2.0985 7.2192 0.0000 -0.0000 0.0000 -84.7214 3.0280 20.0592 15.0746 -24.2500 -3.2565 -0.0000 -0.0000 6.4070 20.7896 -9.5945 -3.6208 -7.1250 0.0000 -0.0000 -4.4074 19.7462 2.6670 0.0000 -0.0000 0.0000 88.6398 2.0162 14.5404 -23.9539 35.1154 -7.6800 0.0000 -0.0000 -3.0168 -12.3550 -52.9645 9.9180 7.1250 -0.0000 -0.0000 66.5215 -75.8544 -52.5726
10.0234 16.4334 3.7239 176.7220 0.5424 -161.0160 0.0000 0.0000 0.0000 -5.3310 -21.9358 -78.9775 16.6517 19.7291 80.1676 1.0065 0.3723 -19.1033 1.7575 -8.3415 -23.7562 0.0000 0.0000 0.0000 19.8203 13.2430 -17.3200 -0.3875 -3.9972 11.0687 -1.0584 -2.5297 -20.4995 -3.8592 11.9707 -35.6285 -6.1033 -0.5385 -18.5737 -0.4855 0.7844 3.5490 3.1613 -0.1510 14.4914 -1.7061 -1.0130 -3.6395 3.2811 -3.5307 21.4800 1.0227 -2.1479 7.2453 0.0000 -0.0000 0.0000 -84.5355 3.0402 20.2650 14.9700 -24.1043 -3.2137 -0.0000 -0.0000 6.2777 20.9071 -9.8149 -3.7258 -7.1250 0.0000 -0.0000 -4.3274 19.5037 2.6418 0.0000 -0.0000 0.0000 88.7817 2.1228 14.7446 -23.9297 35.0898 -7.6661 0.0000 -0.0000 -2.8875 -12.6229 -52.5810 10.0853 7.1250 -0.0000 -0.0000 64.9320 -75.8389 -51.1112
10.0223 16.4348 3.6591 176.6010 0.6208 -161.1250 0.0000 0.0000 0.0000 -5.3745 -21.9359 -78.9377 16.1000 19.6314 78.5296 0.9700 0.2470 -18.7096 1.6681 -8.1376 -23.1328 0.0000 0.0000 0.0000 19.7331 13.0518 -17.0447 -0.3939 -4.0301 11.1614 -1.0885 -2.3545 -20.6877 -3.8266 11.9260 -35.4706 -6.1735 -0.5249 -18.5120 -0.5605 0.8943 3.6483 3.1557 -0.0800 14.5653 -1.8295 -1.0019 -3.7721 3.3534 -3.4997 21.4888 1.0682 -2.1294 7.2738 0.0000 -0.0000 0.0000 -84.5083 2.9656 20.2490 14.8831 -23.9830 -3.1783 -0.0000 -0.0000 6.4656 21.1457 -10.0611 -3.8656 -7.1250 0.0000 -0.0000 -4.1626 19.2240 2.5666 0.0000 -0.0000 0.0000 88.7631 2.2702 15.2870 -24.0762 35.2447 -7.7505 0.0000 -0.0000 -3.1183 -10.8537 -56.6466 9.0988 7.1250 -0.0000 -0.0000 81.5210 -75.9245 -66.9141
10.0242 16.4339 3.5934 176.5350 0.6460 -161.1520 0.0000 0.0000 0.0000 -5.3891 -21.8951 -79.0227 15.5997 19.5293 77.0368 0.9073 0.1910 -18.0765 2.0059 -8.8783 -25.4154 0.0000 0.0000 0.0000 19.7385 12.9222 -16.7200 -0.3890 -4.0050 11.0908 -1.1155 -2.2578 -20.8832 -3.8423 11.9475 -35.5465 -6.2044 -0.4932 -18.5074 -0.6215 0.9569 3.6934 3.1232 -0.0520 14.6112 -1.8691 -0.9505 -3.7713 3.3396 -3.3995 21.4124 1.0789 -2.0803 7.2459 0.0000 0.0000 0.0000 -84.4547 2.9768 20.1147 14.8625 -23.9542 -3.1699 -0.0000 -0.0000 6.5732 21.1568 -9.9639 -3.8310 -7.1250 0.0000 -0.0000 -4.1526 19.3266 2.5510 0.0000 0.0000 0.0000 88.7502 2.3252 15.8620 -24.2724 35.4510 -7.8640 0.0000 -0.0000 -3.4842 -10.3969 -57.6550 8.8113 7.1250 -0.0000 -0.0000 85.5578 -75.7734 -70.7792
10.0260 16.4297 3.5323 176.4930 0.6777 -161.0850 0.0000 0.0000 0.0000 -5.3462 -21.8718 -79.1767 15.1326 19.4222 75.6358 0.8651 0.0945 -17.6176 2.3339 -9.5294 -27.4658 0.0000 0.0000 0.0000 19.7417 12.8892 -16.5295 -0.3886 -4.0029 11.0847 -1.1481 -2.2279 -21.1569 -3.8893 12.0117 -35.7733 -6.2502 -0.4737 -18.5796 -0.7090 1.0162 3.6967 3.0689 -0.0237 14.6544 -1.9231 -0.9189 -3.9402 3.4843 -3.4246 21.7160 1.1290 -2.0918 7.3793 -0.0000 0.0000 0.0000 -84.2786 3.0445 20.0866 14.9073 -24.0168 -3.1881 -0.0000 -0.0000 6.3817 21.1479 -9.7447 -3.7460 -7.1250 0.0000 -0.0000 -4.1544 19.5606 2.5303 -0.0000 0.0000 0.0000 88.8388 2.4251 16.3913 -24.3990 35.5833 -7.9375 0.0000 -0.0000 -3.6883 -11.1722 -56.8699 9.3913 7.1250 -0.0000 -0.0000 82.4190 -76.0469 -67.9412
10.0251 16.4241 3.4704 176.4310 0.7369 -161.0580 0.0000 0.0000 0.0000 -5.2479 -21.9179 -79.2177 14.6861 19.3091 74.2892 0.8482 -0.3010 -17.3095 2.1485 -9.1687 -26.3245 0.0000 0.0000 0.0000 19.7128 12.8517 -16.2425 -0.3810 -3.9641 10.9756 -1.1696 -2.1864 -21.3254 -3.9109 12.0409 -35.8769 -6.3418 -0.4536 -18.5344 -0.7762 1.0741 3.6893 3.0617 0.0018 14.6135 -1.5925 -0.9323 -3.5896 3.2574 -3.3614 21.1956 1.0121 -2.0450 7.1367 0.0000 0.0000 0.0000 -84.2062 3.0618 19.9920 14.8805 -23.9794 -3.1772 -0.0000 -0.0000 6.3149 21.1102 -9.4640 -3.6323 -7.1250 0.0000 -0.0000 -4.1761 19.8622 2.5154 0.0000 0.0000 0.0000 88.8692 2.5081 16.9667 -24.5582 35.7490 -8.0304 0.0000 -0.0000 -3.8004 -11.9461 -56.8452 10.0445 7.1250 -0.0000 -0.0000 82.3270 -76.3243 -68.1592
10.0232 16.4198 3.3996 176.3850 0.7700 -161.1440 0.0000 0.0000 0.0000 -5.1945 -21.9733 -79.0251 14.2425 19.1860 72.9438 0.8004 -0.4757 -16.7537 2.1536 -9.1789 -26.3565 0.0000 0.0000 0.0000 19.7394 12.6930 -15.8310 -0.3744 -3.9300 10.8798 -1.1915 -2.0912 -21.4716 -3.9196 12.0527 -35.9186 -6.3799 -0.4309 -18.4087 -0.8009 1.1073 3.6697 3.0637 0.0196 14.5109 -1.7684 -0.8959 -4.0190 3.2080 -3.3796 21.9214 1.0136 -2.0854 7.4532 -0.0000 -0.0000 0.0000 -84.2869 3.1584 19.7790 14.7944 -23.8590 -3.1423 -0.0000 -0.0000 6.4983 21.0520 -9.3711 -3.5862 -7.1250 0.0000 -0.0000 -4.2161 19.9653 2.5299 -0.0000 -0.0000 0.0000 88.8491 2.4234 17.4322 -24.7222 35.9187 -8.1264 0.0000 -0.0000 -3.7288 -10.8615 -57.9303 9.2351 7.1250 -0.0000 -0.0000 86.6966 -75.9257 -72.1015
10.0224 16.4156 3.3323 176.4030 0.8236 -161.1830 0.0000 0.0000 0.0000 -5.1207 -21.9320 -78.8875 13.8278 19.0610 71.6779 0.7371 -0.4279 -16.0851 2.4084 -9.6694 -27.9127 0.0000 0.0000 0.0000 19.8066 12.5704 -15.7444 -0.3989 -4.0550 11.2315 -1.2383 -1.9818 -21.8223 -3.9483 12.0913 -36.0558 -6.3645 -0.3736 -18.4009 -0.8238 1.1848 3.6956 3.0523 0.0568 14.5297 -1.7917 -0.9602 -3.8991 3.1121 -3.4437 21.8542 0.9833 -2.1269 7.4102 0.0000 -0.0000 0.0000 -84.3184 3.1707 19.5646 14.7137 -23.7457 -3.1097 -0.0000 -0.0000 6.8160 21.1035 -9.8708 -3.7852 -7.1250 0.0000 -0.0000 -4.1886 19.4297 2.5635 0.0000 -0.0000 0.0000 88.8632 2.4811 17.7103 -24.7906 35.9892 -8.1666 0.0000 -0.0000 -3.4831 -9.5219 -57.5332 8.0549 7.1250 -0.0000 -0.0000 85.0498 -75.4688 -69.9257
10.0226 16.4108 3.2729 176.4510 0.8874 -161.0710 0.0000 0.0000 0.0000 -4.9601 -21.8578 -78.9534 13.4561 18.9407 70.5363 0.6677 -0.4606 -15.2897 2.6123 -10.0393 -29.1042 0.0000 0.0000 0.0000 19.8647 12.6200 -15.8868 -0.4319 -4.2173 11.6888 -1.2807 -1.9748 -22.1745 -3.9773 12.1301 -36.1938 -6.3316 -0.2841 -18.4711 -0.8951 1.3150 3.6985 2.9933 0.1229 14.5646 -1.5365 -0.9615 -3.6529 2.9195 -3.3799 21.4886 0.8886 -2.0836 7.2381 -0.0000 -0.0000 0.0000 -84.1979 3.0692 19.4205 14.6327 -23.6319 -3.0772 -0.0000 -0.0000 7.0644 21.1942 -10.4274 -4.0144 -7.1250 0.0000 -0.0000 -4.1365 18.8306 2.5867 -0.0000 -0.0000 0.0000 88.8958 2.6317 18.1066 -24.8255 36.0251 -8.1870 0.0000 -0.0000 -3.6031 -10.2027 -55.9687 8.4833 7.1250 -0.0000 -0.0000 78.8783 -75.6394 -63.9976
